<?xml version="1.0" encoding="UTF-8" standalone="no"?>
<!-- Created with Inkscape (http://www.inkscape.org/) -->

<svg
   xmlns:dc="http://purl.org/dc/elements/1.1/"
   xmlns:cc="http://creativecommons.org/ns#"
   xmlns:rdf="http://www.w3.org/1999/02/22-rdf-syntax-ns#"
   xmlns:svg="http://www.w3.org/2000/svg"
   xmlns="http://www.w3.org/2000/svg"
   xmlns:sodipodi="http://sodipodi.sourceforge.net/DTD/sodipodi-0.dtd"
   xmlns:inkscape="http://www.inkscape.org/namespaces/inkscape"
   width="300"
   height="300"
   viewBox="0 0 300 300.00001"
   id="svg2"
   version="1.1"
   inkscape:version="0.91 r13725"
   sodipodi:docname="spin-me-a-yarn-logo.svg">
  <defs
     id="defs4" />
  <sodipodi:namedview
     id="base"
     pagecolor="#ffffff"
     bordercolor="#666666"
     borderopacity="1.0"
     inkscape:pageopacity="0.0"
     inkscape:pageshadow="2"
     inkscape:zoom="1.979899"
     inkscape:cx="219.33349"
     inkscape:cy="161.98521"
     inkscape:document-units="px"
     inkscape:current-layer="layer1"
     showgrid="false"
     units="px"
     inkscape:window-width="1920"
     inkscape:window-height="1017"
     inkscape:window-x="-8"
     inkscape:window-y="-8"
     inkscape:window-maximized="1" />
  <metadata
     id="metadata7">
    <rdf:RDF>
      <cc:Work
         rdf:about="">
        <dc:format>image/svg+xml</dc:format>
        <dc:type
           rdf:resource="http://purl.org/dc/dcmitype/StillImage" />
        <dc:title></dc:title>
      </cc:Work>
    </rdf:RDF>
  </metadata>
  <g
     inkscape:label="Layer 1"
     inkscape:groupmode="layer"
     id="layer1"
     transform="translate(0,-752.36216)">
    <path
       sodipodi:type="spiral"
       style="fill:none;fill-rule:evenodd;stroke:#f6ac0b;stroke-width:8px;stroke-linecap:butt;stroke-linejoin:miter;stroke-opacity:1"
       id="path4142"
       sodipodi:cx="128.28937"
       sodipodi:cy="896.29358"
       sodipodi:expansion="1"
       sodipodi:revolution="6"
       sodipodi:radius="148.35492"
       sodipodi:argument="-36.995655"
       sodipodi:t0="0.00087537698"
       d="m 128.38558,896.38081 c 2.69429,2.60967 -2.17882,4.97855 -4.33532,4.58853 -5.86019,-1.05986 -7.14658,-8.43741 -5.0162,-13.06676 3.78669,-8.22851 14.5276,-9.69177 21.79819,-5.44385 10.64119,6.21722 12.30591,20.69658 5.87151,30.52961 -8.56315,13.08621 -26.8935,14.94934 -39.26104,6.29918 -15.54834,-10.87488 -17.607898,-33.10375 -6.72684,-47.99247 13.16962,-18.0202 39.32152,-20.27523 56.72391,-7.1545 20.49804,15.45473 22.94806,45.54397 7.58216,65.45533 -17.73388,22.97981 -51.76957,25.62459 -74.186769,8.00982 -25.464279,-20.00906 -28.303691,-57.99735 -8.437485,-82.91819 22.281514,-27.95068 64.226764,-30.98467 91.649624,-8.86515 30.43852,24.55197 33.66705,70.45738 9.29281,100.38106 -26.82094,32.92744 -76.68893,36.3505 -109.112487,9.72047 C 38.810436,926.83512 35.192844,873.00266 64.079512,838.07997 95.435221,800.17232 153.23362,796.36019 190.65486,827.50418 c 40.39864,33.62194 44.4053,95.38748 11.00346,135.30678 C 165.77073,1005.701 100.03707,1009.9022 57.620106,974.24207 12.238242,936.0893 7.842477,866.38673 45.761328,821.47243 86.178881,773.59847 159.85106,769.00814 207.2624,809.18599 257.62873,851.868 262.41363,929.51034 219.9765,979.41849 175.03032,1032.2774 93.417327,1037.2569 41.012568,992.56026 -14.339126,945.35015 -19.51319,859.76608 27.443144,804.8649 76.916976,747.02026 166.47248,741.6516 223.86994,790.86781 c 58.91141,50.51437 65.87827,141.25925 17.55648,201.3903"
       transform="matrix(1.0271553,0,0,1.0360253,9.7331234,-23.228581)" />
  </g>
</svg>
